<?xml version="1.0" encoding="UTF-8" standalone="no"?>
<!-- Created with Inkscape (http://www.inkscape.org/) -->

<svg
   xmlns:dc="http://purl.org/dc/elements/1.1/"
   xmlns:cc="http://creativecommons.org/ns#"
   xmlns:rdf="http://www.w3.org/1999/02/22-rdf-syntax-ns#"
   xmlns:svg="http://www.w3.org/2000/svg"
   xmlns="http://www.w3.org/2000/svg"
   xmlns:sodipodi="http://sodipodi.sourceforge.net/DTD/sodipodi-0.dtd"
   xmlns:inkscape="http://www.inkscape.org/namespaces/inkscape"
   width="744.09448819"
   height="1052.3622047"
   id="svg5372"
   version="1.1"
   inkscape:version="0.48.4 r9939"
   sodipodi:docname="FIdent.svg">
  <defs
     id="defs5374">
    <marker
       inkscape:stockid="Arrow1Mend"
       orient="auto"
       refY="0"
       refX="0"
       id="Arrow1Mend"
       style="overflow:visible">
      <path
         inkscape:connector-curvature="0"
         id="path5271"
         d="M 0,0 5,-5 -12.5,0 5,5 0,0 z"
         style="fill-rule:evenodd;stroke:#000000;stroke-width:1pt;marker-start:none"
         transform="matrix(-0.4,0,0,-0.4,-4,0)" />
    </marker>
    <marker
       inkscape:stockid="Arrow1Mend"
       orient="auto"
       refY="0"
       refX="0"
       id="marker5596"
       style="overflow:visible">
      <path
         inkscape:connector-curvature="0"
         id="path5598"
         d="M 0,0 5,-5 -12.5,0 5,5 0,0 z"
         style="fill-rule:evenodd;stroke:#000000;stroke-width:1pt;marker-start:none"
         transform="matrix(-0.4,0,0,-0.4,-4,0)" />
    </marker>
    <marker
       inkscape:stockid="Arrow1Mend"
       orient="auto"
       refY="0"
       refX="0"
       id="Arrow1Mend-6"
       style="overflow:visible">
      <path
         inkscape:connector-curvature="0"
         id="path5271-1"
         d="M 0,0 5,-5 -12.5,0 5,5 0,0 z"
         style="fill-rule:evenodd;stroke:#000000;stroke-width:1pt;marker-start:none"
         transform="matrix(-0.4,0,0,-0.4,-4,0)" />
    </marker>
    <marker
       inkscape:stockid="Arrow1Mend"
       orient="auto"
       refY="0"
       refX="0"
       id="marker5709"
       style="overflow:visible">
      <path
         inkscape:connector-curvature="0"
         id="path5711"
         d="M 0,0 5,-5 -12.5,0 5,5 0,0 z"
         style="fill-rule:evenodd;stroke:#000000;stroke-width:1pt;marker-start:none"
         transform="matrix(-0.4,0,0,-0.4,-4,0)" />
    </marker>
    <marker
       inkscape:stockid="Arrow1Mend"
       orient="auto"
       refY="0"
       refX="0"
       id="Arrow1Mend-2"
       style="overflow:visible">
      <path
         inkscape:connector-curvature="0"
         id="path5271-4"
         d="M 0,0 5,-5 -12.5,0 5,5 0,0 z"
         style="fill-rule:evenodd;stroke:#000000;stroke-width:1pt;marker-start:none"
         transform="matrix(-0.4,0,0,-0.4,-4,0)" />
    </marker>
    <marker
       inkscape:stockid="Arrow1Mend"
       orient="auto"
       refY="0"
       refX="0"
       id="marker5834"
       style="overflow:visible">
      <path
         inkscape:connector-curvature="0"
         id="path5836"
         d="M 0,0 5,-5 -12.5,0 5,5 0,0 z"
         style="fill-rule:evenodd;stroke:#000000;stroke-width:1pt;marker-start:none"
         transform="matrix(-0.4,0,0,-0.4,-4,0)" />
    </marker>
    <marker
       inkscape:stockid="Arrow1Mend"
       orient="auto"
       refY="0"
       refX="0"
       id="Arrow1Mend-25"
       style="overflow:visible">
      <path
         inkscape:connector-curvature="0"
         id="path5271-8"
         d="M 0,0 5,-5 -12.5,0 5,5 0,0 z"
         style="fill-rule:evenodd;stroke:#000000;stroke-width:1pt;marker-start:none"
         transform="matrix(-0.4,0,0,-0.4,-4,0)" />
    </marker>
    <marker
       inkscape:stockid="Arrow1Mend"
       orient="auto"
       refY="0"
       refX="0"
       id="marker5950"
       style="overflow:visible">
      <path
         inkscape:connector-curvature="0"
         id="path5952"
         d="M 0,0 5,-5 -12.5,0 5,5 0,0 z"
         style="fill-rule:evenodd;stroke:#000000;stroke-width:1pt;marker-start:none"
         transform="matrix(-0.4,0,0,-0.4,-4,0)" />
    </marker>
  </defs>
  <sodipodi:namedview
     id="base"
     pagecolor="#ffffff"
     bordercolor="#666666"
     borderopacity="1.0"
     inkscape:pageopacity="0.0"
     inkscape:pageshadow="2"
     inkscape:zoom="1.718777"
     inkscape:cx="338.99185"
     inkscape:cy="692.16298"
     inkscape:document-units="px"
     inkscape:current-layer="layer1"
     showgrid="false"
     inkscape:window-width="1366"
     inkscape:window-height="705"
     inkscape:window-x="-4"
     inkscape:window-y="-4"
     inkscape:window-maximized="1" />
  <metadata
     id="metadata5377">
    <rdf:RDF>
      <cc:Work
         rdf:about="">
        <dc:format>image/svg+xml</dc:format>
        <dc:type
           rdf:resource="http://purl.org/dc/dcmitype/StillImage" />
        <dc:title />
      </cc:Work>
    </rdf:RDF>
  </metadata>
  <g
     inkscape:label="Layer 1"
     inkscape:groupmode="layer"
     id="layer1">
    <rect
       style="fill:none;stroke:none"
       id="rect4061-0"
       width="307.50208"
       height="314.20157"
       x="167.47748"
       y="143.7079" />
    <path
       style="fill:none;stroke:#000000;stroke-width:1.69382954;stroke-linecap:butt;stroke-linejoin:miter;stroke-miterlimit:4;stroke-opacity:1;stroke-dasharray:none;marker-end:url(#Arrow1Mend)"
       d="m 199.48518,331.53834 221.67987,0.63036"
       id="path4063-0"
       inkscape:connector-curvature="0"
       sodipodi:nodetypes="cc" />
    <path
       sodipodi:nodetypes="cc"
       inkscape:connector-curvature="0"
       id="path4065-1"
       d="M 270.3308,438.54547 270.21968,173.43292"
       style="fill:none;stroke:#000000;stroke-width:1.69382954;stroke-linecap:butt;stroke-linejoin:miter;stroke-miterlimit:4;stroke-opacity:1;stroke-dasharray:none;marker-end:url(#Arrow1Mend)" />
    <text
       sodipodi:linespacing="125%"
       id="text4067-4"
       y="353.0676"
       x="418.95386"
       style="font-size:30px;font-style:italic;font-variant:normal;font-weight:normal;font-stretch:normal;text-indent:0;text-align:start;text-decoration:none;line-height:125%;letter-spacing:0px;word-spacing:0px;text-transform:none;direction:ltr;block-progression:tb;writing-mode:lr-tb;text-anchor:start;baseline-shift:baseline;color:#000000;fill:#000000;fill-opacity:1;fill-rule:nonzero;stroke:none;stroke-width:1px;marker:none;visibility:visible;display:inline;overflow:visible;enable-background:accumulate;font-family:Times New Roman;-inkscape-font-specification:'Times New Roman, Italic'"
       xml:space="preserve"><tspan
         y="353.0676"
         x="418.95386"
         id="tspan4069-6"
         sodipodi:role="line">x</tspan></text>
    <text
       sodipodi:linespacing="125%"
       id="text4071-0"
       y="183.98232"
       x="246.73083"
       style="font-size:30px;font-style:italic;font-variant:normal;font-weight:normal;font-stretch:normal;text-indent:0;text-align:start;text-decoration:none;line-height:125%;letter-spacing:0px;word-spacing:0px;text-transform:none;direction:ltr;block-progression:tb;writing-mode:lr-tb;text-anchor:start;baseline-shift:baseline;color:#000000;fill:#000000;fill-opacity:1;fill-rule:nonzero;stroke:none;stroke-width:1px;marker:none;visibility:visible;display:inline;overflow:visible;enable-background:accumulate;font-family:Times New Roman;-inkscape-font-specification:'Times New Roman, Italic'"
       xml:space="preserve"><tspan
         y="183.98232"
         x="246.73083"
         id="tspan4073-7"
         sodipodi:role="line">y</tspan></text>
    <text
       sodipodi:linespacing="125%"
       id="text4075-1"
       y="347.95016"
       x="278.18738"
       style="font-size:16px;font-style:normal;font-variant:normal;font-weight:bold;font-stretch:normal;line-height:125%;letter-spacing:0px;word-spacing:0px;fill:#000000;fill-opacity:1;stroke:none;font-family:Times New Roman;-inkscape-font-specification:Times New Roman"
       xml:space="preserve"><tspan
         style="font-size:16px;font-style:normal;font-variant:normal;font-weight:normal;font-stretch:normal;font-family:Times New Roman;-inkscape-font-specification:Times New Roman"
         y="347.95016"
         x="278.18738"
         id="tspan4077-7"
         sodipodi:role="line">0</tspan></text>
    <text
       sodipodi:linespacing="125%"
       id="text4079-7"
       y="262.13351"
       x="386.25983"
       style="font-size:18px;font-style:oblique;font-variant:normal;font-weight:normal;font-stretch:normal;text-indent:0;text-align:start;text-decoration:none;line-height:125%;letter-spacing:0px;word-spacing:0px;text-transform:none;direction:ltr;block-progression:tb;writing-mode:lr-tb;text-anchor:start;baseline-shift:baseline;color:#000000;fill:#000000;fill-opacity:1;fill-rule:nonzero;stroke:none;stroke-width:1px;marker:none;visibility:visible;display:inline;overflow:visible;enable-background:accumulate;font-family:Times New Roman;-inkscape-font-specification:Times New Roman"
       xml:space="preserve"><tspan
         y="262.13351"
         x="386.25983"
         id="tspan4081-7"
         sodipodi:role="line">y = x</tspan></text>
    <path
       inkscape:connector-curvature="0"
       id="path4085-6"
       d="M 229.12341,372.90032 376.29681,225.76699"
       style="fill:none;stroke:#333333;stroke-width:1px;stroke-linecap:butt;stroke-linejoin:miter;stroke-opacity:1"
       inkscape:transform-center-x="-32.926741"
       inkscape:transform-center-y="-32.21077" />
    <text
       sodipodi:linespacing="125%"
       id="text4545"
       y="405.63596"
       x="295.58188"
       style="font-size:22.29563904px;font-style:normal;font-variant:normal;font-weight:normal;font-stretch:normal;text-indent:0;text-align:start;text-decoration:none;line-height:125%;letter-spacing:0px;word-spacing:0px;text-transform:none;direction:ltr;block-progression:tb;writing-mode:lr-tb;text-anchor:start;baseline-shift:baseline;color:#000000;fill:#000000;fill-opacity:1;fill-rule:nonzero;stroke:none;stroke-width:1px;marker:none;visibility:visible;display:inline;overflow:visible;enable-background:accumulate;font-family:Times New Roman;-inkscape-font-specification:'Times New Roman,'"
       xml:space="preserve"
       transform="scale(1.0447654,0.95715268)"><tspan
         y="405.63596"
         x="295.58188"
         id="tspan4547"
         sodipodi:role="line">Dom(  ) = </tspan></text>
    <g
       transform="translate(-295.42824,-363.57726)"
       id="g3145">
      <rect
         ry="0"
         style="fill:#ffffff;fill-opacity:1;stroke:none"
         id="rect4573"
         width="2.7304723"
         height="0.94742727"
         x="706.36328"
         y="768.98297" />
    </g>
    <text
       xml:space="preserve"
       style="font-size:22.29563904px;font-style:italic;font-variant:normal;font-weight:normal;font-stretch:normal;text-indent:0;text-align:start;text-decoration:none;line-height:125%;letter-spacing:0px;word-spacing:0px;text-transform:none;direction:ltr;block-progression:tb;writing-mode:lr-tb;text-anchor:start;baseline-shift:baseline;color:#000000;fill:#000000;fill-opacity:1;fill-rule:nonzero;stroke:none;stroke-width:1px;marker:none;visibility:visible;display:inline;overflow:visible;enable-background:accumulate;font-family:Times New Roman;-inkscape-font-specification:'Times New Roman, Italic'"
       x="349.48508"
       y="405.97903"
       id="text4087"
       sodipodi:linespacing="125%"
       transform="scale(1.0447654,0.95715268)"><tspan
         sodipodi:role="line"
         id="tspan4089"
         x="349.48508"
         y="405.97903">f</tspan></text>
    <text
       transform="scale(1.0447654,0.95715268)"
       xml:space="preserve"
       style="font-size:22.29563904px;font-style:normal;font-variant:normal;font-weight:normal;font-stretch:normal;text-indent:0;text-align:start;text-decoration:none;line-height:125%;letter-spacing:0px;word-spacing:0px;text-transform:none;direction:ltr;block-progression:tb;writing-mode:lr-tb;text-anchor:start;baseline-shift:baseline;color:#000000;fill:#000000;fill-opacity:1;fill-rule:nonzero;stroke:none;stroke-width:1px;marker:none;visibility:visible;display:inline;overflow:visible;enable-background:accumulate;font-family:Times New Roman;-inkscape-font-specification:'Times New Roman,'"
       x="315.20175"
       y="432.39072"
       id="text4117"
       sodipodi:linespacing="125%"><tspan
         sodipodi:role="line"
         id="tspan4119"
         x="315.20175"
         y="432.39072">Im(  ) = </tspan></text>
    <text
       transform="scale(1.0447654,0.95715268)"
       sodipodi:linespacing="125%"
       id="text4123"
       y="432.7341"
       x="348.96439"
       style="font-size:22.29563904px;font-style:italic;font-variant:normal;font-weight:normal;font-stretch:normal;text-indent:0;text-align:start;text-decoration:none;line-height:125%;letter-spacing:0px;word-spacing:0px;text-transform:none;direction:ltr;block-progression:tb;writing-mode:lr-tb;text-anchor:start;baseline-shift:baseline;color:#000000;fill:#000000;fill-opacity:1;fill-rule:nonzero;stroke:none;stroke-width:1px;marker:none;visibility:visible;display:inline;overflow:visible;enable-background:accumulate;font-family:Times New Roman;-inkscape-font-specification:'Times New Roman, Italic'"
       xml:space="preserve"><tspan
         y="432.7341"
         x="348.96439"
         id="tspan4125"
         sodipodi:role="line">f</tspan></text>
    <g
       id="g4113"
       transform="translate(-363.42824,-351.57726)">
      <text
         xml:space="preserve"
         style="font-size:25.13879395px;font-style:normal;font-variant:normal;font-weight:normal;font-stretch:normal;text-indent:0;text-align:start;text-decoration:none;line-height:125%;letter-spacing:0px;word-spacing:0px;text-transform:none;direction:ltr;block-progression:tb;writing-mode:lr-tb;text-anchor:start;baseline-shift:baseline;color:#000000;fill:#000000;fill-opacity:1;fill-rule:nonzero;stroke:none;stroke-width:0;marker:none;visibility:visible;display:inline;overflow:visible;enable-background:accumulate;font-family:HGPMinchoL;-inkscape-font-specification:HGPMinchoL"
         x="682.48688"
         y="868.0014"
         id="text4565"
         sodipodi:linespacing="125%"
         transform="scale(1.1334763,0.88224165)"><tspan
           sodipodi:role="line"
           id="tspan4567"
           x="682.48688"
           y="868.0014">R</tspan></text>
      <g
         transform="translate(24.589985,-0.31444994)"
         id="g4084">
        <g
           id="text4090"
           style="font-size:25.13879395px;font-style:normal;font-variant:normal;font-weight:normal;font-stretch:normal;text-indent:0;text-align:start;text-decoration:none;line-height:125%;letter-spacing:0px;word-spacing:0px;text-transform:none;direction:ltr;block-progression:tb;writing-mode:lr-tb;text-anchor:start;baseline-shift:baseline;color:#000000;fill:#000000;fill-opacity:1;fill-rule:nonzero;stroke:none;stroke-width:0;marker:none;visibility:visible;display:inline;overflow:visible;enable-background:accumulate;font-family:HGPMinchoL;-inkscape-font-specification:HGPMinchoL"
           transform="matrix(1.1334763,0,0,0.88224165,-0.29063011,-0.06512223)">
          <path
             sodipodi:nodetypes="ccsccccscccccccsccccccsccccccccccccsc"
             inkscape:connector-curvature="0"
             id="path4103"
             style="marker:none"
             d="m 661.56439,866.74969 c 0,0.26187 0.0655,0.45826 0.1964,0.58919 0.19639,0.13094 0.42552,0.1964 0.68739,0.1964 l 0.58919,0 0,0.58919 -4.51713,0 0,-0.58919 0.58919,0 c 0.32733,0 0.55645,-0.0655 0.68739,-0.1964 0.13093,-0.13093 0.19639,-0.32732 0.1964,-0.58919 l 0,-14.04237 c -10e-6,-0.26185 -0.0655,-0.45824 -0.1964,-0.58919 -0.13094,-0.13091 -0.36006,-0.19638 -0.68739,-0.1964 l -0.58919,0 0,-0.58919 6.87389,0 c 1.70209,2e-5 3.07687,0.32735 4.12433,0.98199 1.04744,0.65467 1.57116,1.63665 1.57118,2.94595 -2e-5,1.30932 -0.45828,2.32404 -1.37478,3.04415 -0.85107,0.72013 -1.89852,1.17839 -3.14235,1.37478 l 3.92794,7.16848 c 0.13091,0.26187 0.26184,0.42553 0.39279,0.49099 0.19638,0.13094 0.39278,0.1964 0.58919,0.1964 l 1.33185,0.0386 0.4426,0.56103 -3.89731,0 -4.56676,-9.00889 -3.22842,0.55345 m 3.43694,-0.58919 c 1.30931,10e-6 2.35676,-0.29459 3.14235,-0.88379 0.85104,-0.58918 1.27657,-1.50569 1.27658,-2.74955 -10e-6,-1.1129 -0.42554,-1.99669 -1.27658,-2.65136 -0.78559,-0.58917 -1.89851,-0.88377 -3.33874,-0.88379 l -2.35676,0 c -0.26187,2e-5 -0.491,0.0655 -0.68739,0.1964 -0.13094,0.13095 -0.19653,0.32734 -0.1964,0.58919 l 0.003,6.97178" />
        </g>
      </g>
    </g>
    <g
       transform="translate(-363.42824,-376.97716)"
       id="g4120">
      <text
         transform="scale(1.1334763,0.88224165)"
         sodipodi:linespacing="125%"
         id="text4122"
         y="868.0014"
         x="682.48688"
         style="font-size:25.13879395px;font-style:normal;font-variant:normal;font-weight:normal;font-stretch:normal;text-indent:0;text-align:start;text-decoration:none;line-height:125%;letter-spacing:0px;word-spacing:0px;text-transform:none;direction:ltr;block-progression:tb;writing-mode:lr-tb;text-anchor:start;baseline-shift:baseline;color:#000000;fill:#000000;fill-opacity:1;fill-rule:nonzero;stroke:none;stroke-width:0;marker:none;visibility:visible;display:inline;overflow:visible;enable-background:accumulate;font-family:HGPMinchoL;-inkscape-font-specification:HGPMinchoL"
         xml:space="preserve"><tspan
           y="868.0014"
           x="682.48688"
           id="tspan4124"
           sodipodi:role="line">R</tspan></text>
      <g
         id="g4126"
         transform="translate(24.589985,-0.31444994)">
        <g
           transform="matrix(1.1334763,0,0,0.88224165,-0.29063011,-0.06512223)"
           style="font-size:25.13879395px;font-style:normal;font-variant:normal;font-weight:normal;font-stretch:normal;text-indent:0;text-align:start;text-decoration:none;line-height:125%;letter-spacing:0px;word-spacing:0px;text-transform:none;direction:ltr;block-progression:tb;writing-mode:lr-tb;text-anchor:start;baseline-shift:baseline;color:#000000;fill:#000000;fill-opacity:1;fill-rule:nonzero;stroke:none;stroke-width:0;marker:none;visibility:visible;display:inline;overflow:visible;enable-background:accumulate;font-family:HGPMinchoL;-inkscape-font-specification:HGPMinchoL"
           id="g4128">
          <path
             d="m 661.56439,866.74969 c 0,0.26187 0.0655,0.45826 0.1964,0.58919 0.19639,0.13094 0.42552,0.1964 0.68739,0.1964 l 0.58919,0 0,0.58919 -4.51713,0 0,-0.58919 0.58919,0 c 0.32733,0 0.55645,-0.0655 0.68739,-0.1964 0.13093,-0.13093 0.19639,-0.32732 0.1964,-0.58919 l 0,-14.04237 c -10e-6,-0.26185 -0.0655,-0.45824 -0.1964,-0.58919 -0.13094,-0.13091 -0.36006,-0.19638 -0.68739,-0.1964 l -0.58919,0 0,-0.58919 6.87389,0 c 1.70209,2e-5 3.07687,0.32735 4.12433,0.98199 1.04744,0.65467 1.57116,1.63665 1.57118,2.94595 -2e-5,1.30932 -0.45828,2.32404 -1.37478,3.04415 -0.85107,0.72013 -1.89852,1.17839 -3.14235,1.37478 l 3.92794,7.16848 c 0.13091,0.26187 0.26184,0.42553 0.39279,0.49099 0.19638,0.13094 0.39278,0.1964 0.58919,0.1964 l 1.33185,0.0386 0.4426,0.56103 -3.89731,0 -4.56676,-9.00889 -3.22842,0.55345 m 3.43694,-0.58919 c 1.30931,10e-6 2.35676,-0.29459 3.14235,-0.88379 0.85104,-0.58918 1.27657,-1.50569 1.27658,-2.74955 -10e-6,-1.1129 -0.42554,-1.99669 -1.27658,-2.65136 -0.78559,-0.58917 -1.89851,-0.88377 -3.33874,-0.88379 l -2.35676,0 c -0.26187,2e-5 -0.491,0.0655 -0.68739,0.1964 -0.13094,0.13095 -0.19653,0.32734 -0.1964,0.58919 l 0.003,6.97178"
             style="marker:none"
             id="path4130"
             inkscape:connector-curvature="0"
             sodipodi:nodetypes="ccsccccscccccccsccccccsccccccccccccsc" />
        </g>
      </g>
    </g>
  </g>
</svg>
