<?xml version="1.0" encoding="UTF-8" standalone="no"?>
<!-- Created with Inkscape (http://www.inkscape.org/) -->

<svg
   xmlns:dc="http://purl.org/dc/elements/1.1/"
   xmlns:cc="http://creativecommons.org/ns#"
   xmlns:rdf="http://www.w3.org/1999/02/22-rdf-syntax-ns#"
   xmlns:svg="http://www.w3.org/2000/svg"
   xmlns="http://www.w3.org/2000/svg"
   xmlns:sodipodi="http://sodipodi.sourceforge.net/DTD/sodipodi-0.dtd"
   xmlns:inkscape="http://www.inkscape.org/namespaces/inkscape"
   width="744.09448819"
   height="1052.3622047"
   id="svg5372"
   version="1.1"
   inkscape:version="0.48.2 r9819"
   sodipodi:docname="FAfim.svg">
  <defs
     id="defs5374">
    <marker
       inkscape:stockid="Arrow1Mend"
       orient="auto"
       refY="0"
       refX="0"
       id="Arrow1Mend"
       style="overflow:visible">
      <path
         inkscape:connector-curvature="0"
         id="path5271"
         d="M 0,0 5,-5 -12.5,0 5,5 0,0 z"
         style="fill-rule:evenodd;stroke:#000000;stroke-width:1pt;marker-start:none"
         transform="matrix(-0.4,0,0,-0.4,-4,0)" />
    </marker>
    <marker
       inkscape:stockid="Arrow1Mend"
       orient="auto"
       refY="0"
       refX="0"
       id="marker5596"
       style="overflow:visible">
      <path
         inkscape:connector-curvature="0"
         id="path5598"
         d="M 0,0 5,-5 -12.5,0 5,5 0,0 z"
         style="fill-rule:evenodd;stroke:#000000;stroke-width:1pt;marker-start:none"
         transform="matrix(-0.4,0,0,-0.4,-4,0)" />
    </marker>
    <marker
       inkscape:stockid="Arrow1Mend"
       orient="auto"
       refY="0"
       refX="0"
       id="Arrow1Mend-6"
       style="overflow:visible">
      <path
         inkscape:connector-curvature="0"
         id="path5271-1"
         d="M 0,0 5,-5 -12.5,0 5,5 0,0 z"
         style="fill-rule:evenodd;stroke:#000000;stroke-width:1pt;marker-start:none"
         transform="matrix(-0.4,0,0,-0.4,-4,0)" />
    </marker>
    <marker
       inkscape:stockid="Arrow1Mend"
       orient="auto"
       refY="0"
       refX="0"
       id="marker5709"
       style="overflow:visible">
      <path
         inkscape:connector-curvature="0"
         id="path5711"
         d="M 0,0 5,-5 -12.5,0 5,5 0,0 z"
         style="fill-rule:evenodd;stroke:#000000;stroke-width:1pt;marker-start:none"
         transform="matrix(-0.4,0,0,-0.4,-4,0)" />
    </marker>
  </defs>
  <sodipodi:namedview
     id="base"
     pagecolor="#ffffff"
     bordercolor="#666666"
     borderopacity="1.0"
     inkscape:pageopacity="0.0"
     inkscape:pageshadow="2"
     inkscape:zoom="2.7467913"
     inkscape:cx="260.06323"
     inkscape:cy="476.18402"
     inkscape:document-units="px"
     inkscape:current-layer="layer1"
     showgrid="false"
     inkscape:window-width="1600"
     inkscape:window-height="833"
     inkscape:window-x="-8"
     inkscape:window-y="-8"
     inkscape:window-maximized="1" />
  <metadata
     id="metadata5377">
    <rdf:RDF>
      <cc:Work
         rdf:about="">
        <dc:format>image/svg+xml</dc:format>
        <dc:type
           rdf:resource="http://purl.org/dc/dcmitype/StillImage" />
        <dc:title />
      </cc:Work>
    </rdf:RDF>
  </metadata>
  <g
     inkscape:label="Layer 1"
     inkscape:groupmode="layer"
     id="layer1">
    <rect
       style="fill:none;stroke:none"
       id="rect4061-4"
       width="307.50208"
       height="314.20157"
       x="31.963247"
       y="298.11853" />
    <path
       style="fill:none;stroke:#000000;stroke-width:1.69382954;stroke-linecap:butt;stroke-linejoin:miter;stroke-miterlimit:4;stroke-opacity:1;stroke-dasharray:none;marker-end:url(#Arrow1Mend)"
       d="m 63.970971,485.94893 221.679869,0.63035"
       id="path4063-3"
       inkscape:connector-curvature="0"
       sodipodi:nodetypes="cc" />
    <path
       sodipodi:nodetypes="cc"
       inkscape:connector-curvature="0"
       id="path4065-8"
       d="M 134.8166,592.95606 134.70548,327.84349"
       style="fill:none;stroke:#000000;stroke-width:1.69382954;stroke-linecap:butt;stroke-linejoin:miter;stroke-miterlimit:4;stroke-opacity:1;stroke-dasharray:none;marker-end:url(#Arrow1Mend)" />
    <text
       sodipodi:linespacing="125%"
       id="text4067-0"
       y="507.47815"
       x="283.43964"
       style="font-size:30.00000191px;font-style:italic;font-variant:normal;font-weight:normal;font-stretch:normal;text-indent:0;text-align:start;text-decoration:none;line-height:125%;letter-spacing:0px;word-spacing:0px;text-transform:none;direction:ltr;block-progression:tb;writing-mode:lr-tb;text-anchor:start;baseline-shift:baseline;color:#000000;fill:#000000;fill-opacity:1;fill-rule:nonzero;stroke:none;stroke-width:1px;marker:none;visibility:visible;display:inline;overflow:visible;enable-background:accumulate;font-family:Times New Roman;-inkscape-font-specification:'Times New Roman, Italic'"
       xml:space="preserve"><tspan
         y="507.47815"
         x="283.43964"
         id="tspan4069-8"
         sodipodi:role="line">x</tspan></text>
    <text
       sodipodi:linespacing="125%"
       id="text4071-8"
       y="338.39288"
       x="111.21661"
       style="font-size:30.00000191px;font-style:italic;font-variant:normal;font-weight:normal;font-stretch:normal;text-indent:0;text-align:start;text-decoration:none;line-height:125%;letter-spacing:0px;word-spacing:0px;text-transform:none;direction:ltr;block-progression:tb;writing-mode:lr-tb;text-anchor:start;baseline-shift:baseline;color:#000000;fill:#000000;fill-opacity:1;fill-rule:nonzero;stroke:none;stroke-width:1px;marker:none;visibility:visible;display:inline;overflow:visible;enable-background:accumulate;font-family:Times New Roman;-inkscape-font-specification:'Times New Roman, Italic'"
       xml:space="preserve"><tspan
         y="338.39288"
         x="111.21661"
         id="tspan4073-0"
         sodipodi:role="line">y</tspan></text>
    <text
       sodipodi:linespacing="125%"
       id="text4075-6"
       y="502.36075"
       x="142.67314"
       style="font-size:16px;font-style:normal;font-variant:normal;font-weight:bold;font-stretch:normal;line-height:125%;letter-spacing:0px;word-spacing:0px;fill:#000000;fill-opacity:1;stroke:none;font-family:Times New Roman;-inkscape-font-specification:Times New Roman"
       xml:space="preserve"><tspan
         style="font-size:16px;font-style:normal;font-variant:normal;font-weight:normal;font-stretch:normal;font-family:Times New Roman;-inkscape-font-specification:Times New Roman"
         y="502.36075"
         x="142.67314"
         id="tspan4077-8"
         sodipodi:role="line">0</tspan></text>
    <text
       sodipodi:linespacing="125%"
       id="text4079-1"
       y="416.54407"
       x="202.74557"
       style="font-size:18px;font-style:oblique;font-variant:normal;font-weight:normal;font-stretch:normal;text-indent:0;text-align:start;text-decoration:none;line-height:125%;letter-spacing:0px;word-spacing:0px;text-transform:none;direction:ltr;block-progression:tb;writing-mode:lr-tb;text-anchor:start;baseline-shift:baseline;color:#000000;fill:#000000;fill-opacity:1;fill-rule:nonzero;stroke:none;stroke-width:1px;marker:none;visibility:visible;display:inline;overflow:visible;enable-background:accumulate;font-family:Times New Roman;-inkscape-font-specification:Times New Roman"
       xml:space="preserve"><tspan
         y="416.54407"
         x="202.74557"
         id="tspan4081-9"
         sodipodi:role="line">y = ax + b</tspan></text>
    <path
       inkscape:connector-curvature="0"
       id="path4085-9"
       d="M 57.511819,553.44734 236.20926,337.36078"
       style="fill:none;stroke:#0000ff;stroke-width:1px;stroke-linecap:butt;stroke-linejoin:miter;stroke-opacity:1"
       inkscape:transform-center-x="-42.406389"
       inkscape:transform-center-y="-45.281541"
       sodipodi:nodetypes="cc" />
    <g
       id="g3071"
       transform="translate(40.046727,-62.254457)">
      <text
         transform="scale(1.0447654,0.95715268)"
         xml:space="preserve"
         style="font-size:22.29563904px;font-style:normal;font-variant:normal;font-weight:normal;font-stretch:normal;text-indent:0;text-align:start;text-decoration:none;line-height:125%;letter-spacing:0px;word-spacing:0px;text-transform:none;direction:ltr;block-progression:tb;writing-mode:lr-tb;text-anchor:start;baseline-shift:baseline;color:#000000;fill:#000000;fill-opacity:1;fill-rule:nonzero;stroke:none;stroke-width:1px;marker:none;visibility:visible;display:inline;overflow:visible;enable-background:accumulate;font-family:Times New Roman;-inkscape-font-specification:'Times New Roman,'"
         x="125.39142"
         y="642.62408"
         id="text4545"
         sodipodi:linespacing="125%"><tspan
           sodipodi:role="line"
           id="tspan4547"
           x="125.39142"
           y="642.62408">Dom(  ) = </tspan></text>
      <g
         id="g3145"
         transform="translate(-473.23734,-136.74339)">
        <rect
           y="768.98297"
           x="706.36328"
           height="0.94742727"
           width="2.7304723"
           id="rect4573"
           style="fill:#ffffff;fill-opacity:1;stroke:none"
           ry="0" />
      </g>
      <text
         transform="scale(1.0447654,0.95715268)"
         sodipodi:linespacing="125%"
         id="text4087"
         y="642.96716"
         x="179.29462"
         style="font-size:22.29563904px;font-style:italic;font-variant:normal;font-weight:normal;font-stretch:normal;text-indent:0;text-align:start;text-decoration:none;line-height:125%;letter-spacing:0px;word-spacing:0px;text-transform:none;direction:ltr;block-progression:tb;writing-mode:lr-tb;text-anchor:start;baseline-shift:baseline;color:#000000;fill:#000000;fill-opacity:1;fill-rule:nonzero;stroke:none;stroke-width:1px;marker:none;visibility:visible;display:inline;overflow:visible;enable-background:accumulate;font-family:Times New Roman;-inkscape-font-specification:'Times New Roman, Italic'"
         xml:space="preserve"><tspan
           y="642.96716"
           x="179.29462"
           id="tspan4089"
           sodipodi:role="line">f</tspan></text>
      <text
         sodipodi:linespacing="125%"
         id="text4117"
         y="669.37885"
         x="145.01129"
         style="font-size:22.29563904px;font-style:normal;font-variant:normal;font-weight:normal;font-stretch:normal;text-indent:0;text-align:start;text-decoration:none;line-height:125%;letter-spacing:0px;word-spacing:0px;text-transform:none;direction:ltr;block-progression:tb;writing-mode:lr-tb;text-anchor:start;baseline-shift:baseline;color:#000000;fill:#000000;fill-opacity:1;fill-rule:nonzero;stroke:none;stroke-width:1px;marker:none;visibility:visible;display:inline;overflow:visible;enable-background:accumulate;font-family:Times New Roman;-inkscape-font-specification:'Times New Roman,'"
         xml:space="preserve"
         transform="scale(1.0447654,0.95715268)"><tspan
           y="669.37885"
           x="145.01129"
           id="tspan4119"
           sodipodi:role="line">Im(  ) = </tspan></text>
      <text
         xml:space="preserve"
         style="font-size:22.29563904px;font-style:italic;font-variant:normal;font-weight:normal;font-stretch:normal;text-indent:0;text-align:start;text-decoration:none;line-height:125%;letter-spacing:0px;word-spacing:0px;text-transform:none;direction:ltr;block-progression:tb;writing-mode:lr-tb;text-anchor:start;baseline-shift:baseline;color:#000000;fill:#000000;fill-opacity:1;fill-rule:nonzero;stroke:none;stroke-width:1px;marker:none;visibility:visible;display:inline;overflow:visible;enable-background:accumulate;font-family:Times New Roman;-inkscape-font-specification:'Times New Roman, Italic'"
         x="178.77393"
         y="669.72223"
         id="text4123"
         sodipodi:linespacing="125%"
         transform="scale(1.0447654,0.95715268)"><tspan
           sodipodi:role="line"
           id="tspan4125"
           x="178.77393"
           y="669.72223">f</tspan></text>
      <g
         transform="translate(-541.23734,-124.74339)"
         id="g4113">
        <text
           transform="scale(1.1334763,0.88224165)"
           sodipodi:linespacing="125%"
           id="text4565"
           y="868.0014"
           x="682.48688"
           style="font-size:25.13879395px;font-style:normal;font-variant:normal;font-weight:normal;font-stretch:normal;text-indent:0;text-align:start;text-decoration:none;line-height:125%;letter-spacing:0px;word-spacing:0px;text-transform:none;direction:ltr;block-progression:tb;writing-mode:lr-tb;text-anchor:start;baseline-shift:baseline;color:#000000;fill:#000000;fill-opacity:1;fill-rule:nonzero;stroke:none;stroke-width:0;marker:none;visibility:visible;display:inline;overflow:visible;enable-background:accumulate;font-family:HGPMinchoL;-inkscape-font-specification:HGPMinchoL"
           xml:space="preserve"><tspan
             y="868.0014"
             x="682.48688"
             id="tspan4567"
             sodipodi:role="line">R</tspan></text>
        <g
           id="g4084"
           transform="translate(24.589985,-0.31444994)">
          <g
             transform="matrix(1.1334763,0,0,0.88224165,-0.29063011,-0.06512223)"
             style="font-size:25.13879395px;font-style:normal;font-variant:normal;font-weight:normal;font-stretch:normal;text-indent:0;text-align:start;text-decoration:none;line-height:125%;letter-spacing:0px;word-spacing:0px;text-transform:none;direction:ltr;block-progression:tb;writing-mode:lr-tb;text-anchor:start;baseline-shift:baseline;color:#000000;fill:#000000;fill-opacity:1;fill-rule:nonzero;stroke:none;stroke-width:0;marker:none;visibility:visible;display:inline;overflow:visible;enable-background:accumulate;font-family:HGPMinchoL;-inkscape-font-specification:HGPMinchoL"
             id="text4090">
            <path
               d="m 661.56439,866.74969 c 0,0.26187 0.0655,0.45826 0.1964,0.58919 0.19639,0.13094 0.42552,0.1964 0.68739,0.1964 l 0.58919,0 0,0.58919 -4.51713,0 0,-0.58919 0.58919,0 c 0.32733,0 0.55645,-0.0655 0.68739,-0.1964 0.13093,-0.13093 0.19639,-0.32732 0.1964,-0.58919 l 0,-14.04237 c -10e-6,-0.26185 -0.0655,-0.45824 -0.1964,-0.58919 -0.13094,-0.13091 -0.36006,-0.19638 -0.68739,-0.1964 l -0.58919,0 0,-0.58919 6.87389,0 c 1.70209,2e-5 3.07687,0.32735 4.12433,0.98199 1.04744,0.65467 1.57116,1.63665 1.57118,2.94595 -2e-5,1.30932 -0.45828,2.32404 -1.37478,3.04415 -0.85107,0.72013 -1.89852,1.17839 -3.14235,1.37478 l 3.92794,7.16848 c 0.13091,0.26187 0.26184,0.42553 0.39279,0.49099 0.19638,0.13094 0.39278,0.1964 0.58919,0.1964 l 1.33185,0.0386 0.4426,0.56103 -3.89731,0 -4.56676,-9.00889 -3.22842,0.55345 m 3.43694,-0.58919 c 1.30931,10e-6 2.35676,-0.29459 3.14235,-0.88379 0.85104,-0.58918 1.27657,-1.50569 1.27658,-2.74955 -10e-6,-1.1129 -0.42554,-1.99669 -1.27658,-2.65136 -0.78559,-0.58917 -1.89851,-0.88377 -3.33874,-0.88379 l -2.35676,0 c -0.26187,2e-5 -0.491,0.0655 -0.68739,0.1964 -0.13094,0.13095 -0.19653,0.32734 -0.1964,0.58919 l 0.003,6.97178"
               style="marker:none"
               id="path4103"
               inkscape:connector-curvature="0"
               sodipodi:nodetypes="ccsccccscccccccsccccccsccccccccccccsc" />
          </g>
        </g>
      </g>
      <g
         id="g4120"
         transform="translate(-541.23734,-150.14329)">
        <text
           xml:space="preserve"
           style="font-size:25.13879395px;font-style:normal;font-variant:normal;font-weight:normal;font-stretch:normal;text-indent:0;text-align:start;text-decoration:none;line-height:125%;letter-spacing:0px;word-spacing:0px;text-transform:none;direction:ltr;block-progression:tb;writing-mode:lr-tb;text-anchor:start;baseline-shift:baseline;color:#000000;fill:#000000;fill-opacity:1;fill-rule:nonzero;stroke:none;stroke-width:0;marker:none;visibility:visible;display:inline;overflow:visible;enable-background:accumulate;font-family:HGPMinchoL;-inkscape-font-specification:HGPMinchoL"
           x="682.48688"
           y="868.0014"
           id="text4122"
           sodipodi:linespacing="125%"
           transform="scale(1.1334763,0.88224165)"><tspan
             sodipodi:role="line"
             id="tspan4124"
             x="682.48688"
             y="868.0014">R</tspan></text>
        <g
           transform="translate(24.589985,-0.31444994)"
           id="g4126">
          <g
             id="g4128"
             style="font-size:25.13879395px;font-style:normal;font-variant:normal;font-weight:normal;font-stretch:normal;text-indent:0;text-align:start;text-decoration:none;line-height:125%;letter-spacing:0px;word-spacing:0px;text-transform:none;direction:ltr;block-progression:tb;writing-mode:lr-tb;text-anchor:start;baseline-shift:baseline;color:#000000;fill:#000000;fill-opacity:1;fill-rule:nonzero;stroke:none;stroke-width:0;marker:none;visibility:visible;display:inline;overflow:visible;enable-background:accumulate;font-family:HGPMinchoL;-inkscape-font-specification:HGPMinchoL"
             transform="matrix(1.1334763,0,0,0.88224165,-0.29063011,-0.06512223)">
            <path
               sodipodi:nodetypes="ccsccccscccccccsccccccsccccccccccccsc"
               inkscape:connector-curvature="0"
               id="path4130"
               style="marker:none"
               d="m 661.56439,866.74969 c 0,0.26187 0.0655,0.45826 0.1964,0.58919 0.19639,0.13094 0.42552,0.1964 0.68739,0.1964 l 0.58919,0 0,0.58919 -4.51713,0 0,-0.58919 0.58919,0 c 0.32733,0 0.55645,-0.0655 0.68739,-0.1964 0.13093,-0.13093 0.19639,-0.32732 0.1964,-0.58919 l 0,-14.04237 c -10e-6,-0.26185 -0.0655,-0.45824 -0.1964,-0.58919 -0.13094,-0.13091 -0.36006,-0.19638 -0.68739,-0.1964 l -0.58919,0 0,-0.58919 6.87389,0 c 1.70209,2e-5 3.07687,0.32735 4.12433,0.98199 1.04744,0.65467 1.57116,1.63665 1.57118,2.94595 -2e-5,1.30932 -0.45828,2.32404 -1.37478,3.04415 -0.85107,0.72013 -1.89852,1.17839 -3.14235,1.37478 l 3.92794,7.16848 c 0.13091,0.26187 0.26184,0.42553 0.39279,0.49099 0.19638,0.13094 0.39278,0.1964 0.58919,0.1964 l 1.33185,0.0386 0.4426,0.56103 -3.89731,0 -4.56676,-9.00889 -3.22842,0.55345 m 3.43694,-0.58919 c 1.30931,10e-6 2.35676,-0.29459 3.14235,-0.88379 0.85104,-0.58918 1.27657,-1.50569 1.27658,-2.74955 -10e-6,-1.1129 -0.42554,-1.99669 -1.27658,-2.65136 -0.78559,-0.58917 -1.89851,-0.88377 -3.33874,-0.88379 l -2.35676,0 c -0.26187,2e-5 -0.491,0.0655 -0.68739,0.1964 -0.13094,0.13095 -0.19653,0.32734 -0.1964,0.58919 l 0.003,6.97178" />
          </g>
        </g>
      </g>
    </g>
  </g>
</svg>
